{"title":"Dexter s06e06 HDTV XViD AC3 DTRG","uid":6800939,"size":596011407,"categoryP":"video","categoryS":"tv_shows","magnet":"?xt=urn:btih:46eab77de10b0a3a16a9e5a770f0166090f98296&amp;dn=Dexter+s06e06+HDTV+XViD+AC3+DTRG&amp;tr=udp%3A%2F%2Ftracker.openbittorrent.com%3A80&amp;tr=udp%3A%2F%2Fopen.demonii.com%3A1337&amp;tr=udp%3A%2F%2Ftracker.coppersurfer.tk%3A6969&amp;tr=udp%3A%2F%2Fexodus.desync.com%3A6969","seeders":0,"leechers":0,"uploader":"DTRG_2011","files":3,"time":1320683150,"description":"Format : AVI\nFormat/Info : Audio Video Interleave\nFile size : 568 MiB\nDuration : 54mn 28s\nOverall bit rate : 1 459 Kbps\nWriting application : VirtualDubMod 1.5.10.2 (build 2540/release)\nWriting library : VirtualDubMod build 2540/release\n\nVideo\nID : 0\nFormat : MPEG-4 Visual\nFormat profile : Advanced Simple@L5\nFormat settings, BVOP : 2\nFormat settings, QPel : No\nFormat settings, GMC : No warppoints\nFormat settings, Matrix : Default (H.263)\nMuxing mode : Packed bitstream\nCodec ID : XVID\nCodec ID/Hint : XviD\nDuration : 54mn 28s\nBit rate : 1 065 Kbps\nWidth : 624 pixels\nHeight : 352 pixels\nDisplay aspect ratio : 16:9\nFrame rate : 23.976 fps\nColor space : YUV\nChroma subsampling : 4:2:0\nBit depth : 8 bits\nScan type : Progressive\nCompression mode : Lossy\nBits/(Pixel*Frame) : 0.202\nStream size : 415 MiB (73%)\nWriting library : XviD 64\n\nAudio\nID : 1\nFormat : AC-3\nFormat/Info : Audio Coding 3\nMode extension : CM (complete main)\nCodec ID : 2000\nDuration : 54mn 28s\nBit rate mode : Constant\nBit rate : 384 Kbps\nChannel(s) : 6 channels\nChannel positions : Front: L C R, Side: L R, LFE\nSampling rate : 48.0 KHz\nBit depth : 16 bits\nCompression mode : Lossy\nStream size : 150 MiB (26%)\nAlignment : Split accross interleaves\nInterleave, duration : 42 ms (1.00 video frame)\nInterleave, preload duration : 500 ms\n\n\n\n\n\n\n\n\n\nDexter is caught up in a very personal case that awakens the needs of his Dark Passenger; Debra feels overwhelmed by her new Lieutenant duties, made all the more complicated when she finds out Quinn slept with a witness in the Doomsday case.\n\n\n\n","torrent":{"xt":"urn:btih:46eab77de10b0a3a16a9e5a770f0166090f98296","amp;dn":"Dexter+s06e06+HDTV+XViD+AC3+DTRG","amp;tr":["udp%3A%2F%2Ftracker.openbittorrent.com%3A80","udp%3A%2F%2Fopen.demonii.com%3A1337","udp%3A%2F%2Ftracker.coppersurfer.tk%3A6969","udp%3A%2F%2Fexodus.desync.com%3A6969"],"infoHash":"46eab77de10b0a3a16a9e5a770f0166090f98296","infoHashBuffer":{"type":"Buffer","data":[70,234,183,125,225,11,10,58,22,169,229,167,112,240,22,96,144,249,130,150]},"announce":[],"urlList":[]}}